<?xml version="1.0" encoding="utf-8"?>
<!-- Generator: Adobe Illustrator 24.3.0, SVG Export Plug-In . SVG Version: 6.00 Build 0)  -->
<svg version="1.1" id="레이어_1" xmlns="http://www.w3.org/2000/svg" xmlns:xlink="http://www.w3.org/1999/xlink" x="0px"
	 y="0px" viewBox="0 0 317.7 99.2" style="enable-background:new 0 0 317.7 99.2;" xml:space="preserve">
<style type="text/css">
	.st0{fill:url(#SVGID_1_);}
	.st1{fill:#FFFFFF;}
	.st2{fill:none;stroke:#FFFFFF;stroke-width:0.8504;}
</style>
<g>
	
		<linearGradient id="SVGID_1_" gradientUnits="userSpaceOnUse" x1="-4813.0957" y1="-5011.5518" x2="-4736.666" y2="-5011.5518" gradientTransform="matrix(1.6268 0 0 1.6268 7841.7085 8202.3984)">
		<stop  offset="0" style="stop-color:#ED1B23"/>
		<stop  offset="3.056216e-02" style="stop-color:#EE2B23"/>
		<stop  offset="8.044276e-02" style="stop-color:#F04922"/>
		<stop  offset="0.1435" style="stop-color:#F36D20"/>
		<stop  offset="0.2171" style="stop-color:#F8941C"/>
		<stop  offset="0.2987" style="stop-color:#FFC707"/>
		<stop  offset="0.36" style="stop-color:#FFF200"/>
		<stop  offset="0.3778" style="stop-color:#FDEE00"/>
		<stop  offset="0.4069" style="stop-color:#E7E513"/>
		<stop  offset="0.4437" style="stop-color:#C2D82E"/>
		<stop  offset="0.4867" style="stop-color:#8CC63F"/>
		<stop  offset="0.5343" style="stop-color:#26B34A"/>
		<stop  offset="0.57" style="stop-color:#00A650"/>
		<stop  offset="0.5988" style="stop-color:#00A652"/>
		<stop  offset="0.6286" style="stop-color:#00A558"/>
		<stop  offset="0.659" style="stop-color:#00A563"/>
		<stop  offset="0.6897" style="stop-color:#00A577"/>
		<stop  offset="0.7207" style="stop-color:#00A68E"/>
		<stop  offset="0.7519" style="stop-color:#00A7A9"/>
		<stop  offset="0.7827" style="stop-color:#00A8C9"/>
		<stop  offset="0.809" style="stop-color:#00A9EB"/>
		<stop  offset="0.8266" style="stop-color:#00A3E6"/>
		<stop  offset="0.8592" style="stop-color:#0093D8"/>
		<stop  offset="0.9033" style="stop-color:#0079C2"/>
		<stop  offset="0.9566" style="stop-color:#0056A7"/>
		<stop  offset="1" style="stop-color:#2E3092"/>
	</linearGradient>
	<path class="st0" d="M69.6,0c-23.9-0.3-46,10.7-57.4,29.1c1.7-2,3.5-3.7,5.5-5.2C29.8,13.2,46.5,6.5,64.9,6.5
		c37.2,0,67.3,27.2,67.3,60.7c0,11.3-3.4,21.8-9.4,30.9c0,0,0,0,0,0c-0.2,0.4-0.4,0.8-0.6,1.1c8.2-10.2,13.9-25.6,13.8-38
		C136,27.4,106.3,0.4,69.6,0z"/>
	<g>
		<path class="st1" d="M43.6,37.6l-1.8,7.3H17.6l-2.1,8.7h22.2l-1.8,7.1H13.7l-2.6,10.5h25.3l-1.8,7.4H0l10.1-41H43.6z"/>
		<path class="st1" d="M43,66h9.1c-0.2,1.9,0.1,3.3,0.7,4.2c1.1,1.7,3.6,2.5,7.3,2.5c2.3,0,4.1-0.2,5.7-0.7c2.9-0.9,4.6-2.4,5.2-4.8
			c0.3-1.3-0.1-2.4-1.2-3.1c-1.1-0.7-3.1-1.4-5.8-1.9l-4.6-1c-4.5-1-7.5-2-9.1-3.1c-2.6-1.9-3.4-4.9-2.4-8.9
			c0.9-3.7,3.1-6.7,6.7-9.2c3.6-2.4,8.2-3.7,14-3.7c4.8,0,8.6,1.2,11.5,3.4c2.8,2.3,3.8,5.6,2.9,10h-9.2c0.4-2.5-0.3-4.2-2.3-5.3
			c-1.3-0.7-3.1-1-5.3-1c-2.5,0-4.5,0.4-6.2,1.3c-1.7,0.9-2.7,2.1-3.1,3.7c-0.4,1.5,0.1,2.6,1.4,3.3c0.8,0.5,2.7,1,5.5,1.7l7.5,1.7
			c3.3,0.7,5.6,1.7,7.1,3c2.3,1.9,2.9,4.7,2,8.4c-0.9,3.8-3.3,6.9-7.1,9.3c-3.8,2.5-8.6,3.7-14.4,3.7c-5.9,0-10.3-1.2-13.1-3.7
			C42.8,73.6,41.9,70.3,43,66z"/>
		<path class="st1" d="M114,55.4c-1.5,1-3.4,1.5-5.6,1.5h-8.9l3-12.1h8.9c2.3,0,3.9,0.5,4.9,1.4c1,0.9,1.3,2.4,0.8,4.6
			C116.5,52.8,115.5,54.4,114,55.4z M124.8,40.8c-2.2-2.1-5.6-3.2-10.2-3.2H94.7l-10.1,41h9.5l3.6-14.8h9.7c5.1,0,9.2-1,12.4-3
			c3.2-2,5.4-5.4,6.6-10.3C127.6,46.2,127,42.9,124.8,40.8z"/>
	</g>
</g>
<g>
	<polyline class="st1" points="178.3,37.3 177.8,40.2 167.9,40.2 167.3,43.8 176.3,43.8 175.8,46.6 166.8,46.6 166,50.9 176.3,50.9 
		175.8,53.9 161.7,53.9 164.6,37.3 178.3,37.3 	"/>
	<path class="st1" d="M184.6,47.5l1.8-10.2h4l-1.8,10.2c-0.2,1.1-0.2,2,0,2.5c0.3,0.9,1.2,1.4,2.8,1.4c1.6,0,2.7-0.5,3.3-1.4
		c0.4-0.5,0.7-1.4,0.9-2.5l1.8-10.2h4l-1.8,10.2c-0.3,1.8-0.8,3.2-1.6,4.1c-1.5,1.8-3.8,2.7-7,2.7c-3.2,0-5.2-0.9-6.1-2.7
		C184.3,50.7,184.3,49.3,184.6,47.5"/>
	<polyline class="st1" points="206.7,53.9 209.6,37.3 213.7,37.3 219.1,48.9 221.1,37.3 224.7,37.3 221.8,53.9 217.9,53.9 
		212.4,42.1 210.3,53.9 206.7,53.9 	"/>
	<path class="st1" d="M230.1,48.8h3.7c0,0.8,0.1,1.3,0.4,1.7c0.5,0.7,1.5,1,3.1,1c0.9,0,1.7-0.1,2.3-0.3c1.2-0.3,1.8-1,2-1.9
		c0.1-0.6-0.1-1-0.6-1.3c-0.5-0.3-1.3-0.6-2.4-0.8l-1.9-0.4c-1.9-0.4-3.1-0.8-3.8-1.3c-1.1-0.8-1.5-2-1.2-3.6
		c0.3-1.5,1.1-2.7,2.5-3.7c1.4-1,3.3-1.5,5.6-1.5c2,0,3.5,0.5,4.8,1.4c1.2,0.9,1.7,2.3,1.5,4h-3.7c0.1-1-0.3-1.7-1.1-2.1
		c-0.6-0.3-1.3-0.4-2.2-0.4c-1,0-1.8,0.2-2.5,0.5c-0.7,0.4-1.1,0.9-1.2,1.5c-0.1,0.6,0.1,1,0.6,1.3c0.3,0.2,1.1,0.4,2.3,0.7l3.1,0.7
		c1.4,0.3,2.3,0.7,3,1.2c1,0.8,1.3,1.9,1.1,3.4c-0.3,1.5-1.1,2.8-2.6,3.8c-1.5,1-3.4,1.5-5.8,1.5c-2.4,0-4.2-0.5-5.4-1.5
		C230.2,51.9,229.7,50.5,230.1,48.8"/>
	<path class="st1" d="M253,47.5l1.8-10.2h4L257,47.5c-0.2,1.1-0.2,2,0,2.5c0.3,0.9,1.3,1.4,2.8,1.4c1.6,0,2.7-0.5,3.3-1.4
		c0.4-0.5,0.7-1.4,0.9-2.5l1.8-10.2h4L268,47.5c-0.3,1.8-0.9,3.2-1.7,4.1c-1.5,1.8-3.8,2.7-7,2.7c-3.2,0-5.3-0.9-6.1-2.7
		C252.8,50.7,252.7,49.3,253,47.5"/>
	<polyline class="st1" points="275.1,53.9 278.1,37.3 282.2,37.3 287.5,48.9 289.6,37.3 293.2,37.3 290.2,53.9 286.4,53.9 
		280.8,42.1 278.8,53.9 275.1,53.9 	"/>
	<path class="st1" d="M316.8,42.5H313c-0.1-1.1-0.7-1.9-1.7-2.4c-0.6-0.2-1.3-0.4-2.1-0.4c-1.5,0-2.8,0.5-4,1.5
		c-1.1,1-1.9,2.5-2.2,4.6c-0.4,2-0.1,3.5,0.8,4.3c0.9,0.8,2,1.3,3.3,1.3c1.3,0,2.4-0.3,3.4-1c1-0.7,1.6-1.6,2-2.6h-4.3l0.5-2.8h7.7
		l-1.6,8.9h-2.6l0-2.1c-0.9,0.8-1.7,1.3-2.3,1.7c-1.1,0.6-2.4,0.8-3.9,0.8c-2.5,0-4.3-0.8-5.6-2.3c-1.4-1.5-1.8-3.6-1.3-6.3
		c0.5-2.7,1.7-4.9,3.6-6.5c1.9-1.6,4.3-2.4,7-2.4c2.4,0,4.2,0.5,5.4,1.6C316.3,39.5,316.9,40.9,316.8,42.5"/>
	<path class="st2" d="M241.8,58.3h15l-0.5,2.9h-5.6l-2.4,13.7h-3.9l2.4-13.7h-5.6L241.8,58.3z M216.3,75l2.9-16.6h4.1l5.3,11.6
		l2-11.6h3.6L231.3,75h-3.9L222,63.2L219.9,75H216.3z M210.4,58.3L207.5,75h-3.8l2.9-16.6H210.4z M284.2,58.3l-2.9,16.6h3.8l1.1-6.5
		h4c1.1,0,1.9,0.2,2.2,0.5c0.4,0.4,0.4,1.1,0.3,2.1l-0.2,1.5c-0.1,0.5-0.1,1-0.1,1.4c0,0.2,0,0.5,0.1,0.9h4.3l0.1-0.4
		c-0.3-0.2-0.5-0.5-0.5-0.9c0-0.3,0-0.8,0.2-1.5l0.2-1.1c0.2-1.2,0.2-2-0.1-2.6c-0.3-0.6-0.8-1-1.6-1.3c1.1-0.3,1.9-0.8,2.5-1.6
		c0.6-0.8,0.9-1.5,1.1-2.3c0.1-0.7,0.1-1.2,0-1.7c-0.1-0.5-0.4-1-0.7-1.4c-0.4-0.5-0.9-0.9-1.6-1.2c-0.7-0.3-1.6-0.4-2.9-0.4H284.2z
		 M293.9,61.5c0.7,0.3,0.9,1,0.8,2c-0.2,0.9-0.7,1.6-1.5,1.9c-0.5,0.2-1.1,0.3-2,0.3h-4.4l0.8-4.5h4.5
		C292.9,61.2,293.5,61.3,293.9,61.5z M184.1,58.3L181.2,75h3.8l1.1-6.5h4c1.1,0,1.9,0.2,2.2,0.5c0.4,0.4,0.4,1.1,0.3,2.1l-0.2,1.5
		c-0.1,0.5-0.1,1-0.1,1.4c0,0.2,0,0.5,0.1,0.9h4.3l0.1-0.4c-0.3-0.2-0.5-0.5-0.5-1c0-0.3,0-0.8,0.2-1.5l0.2-1.1
		c0.2-1.2,0.2-2-0.1-2.6c-0.3-0.6-0.8-1-1.6-1.3c1.1-0.3,1.9-0.9,2.5-1.6c0.6-0.8,0.9-1.5,1.1-2.3c0.1-0.7,0.1-1.2,0-1.7
		c-0.1-0.5-0.4-1-0.7-1.4c-0.4-0.5-0.9-0.9-1.6-1.2c-0.6-0.3-1.6-0.4-2.9-0.4H184.1z M193.7,61.5c0.7,0.3,0.9,1,0.8,2
		c-0.2,0.9-0.7,1.6-1.5,1.9c-0.5,0.2-1.1,0.3-2,0.3h-4.4l0.8-4.5h4.5C192.7,61.2,193.3,61.3,193.7,61.5z M177.6,59.6
		c-1-0.9-2.4-1.3-4.2-1.3h-8.1L162.4,75h3.8l1.1-6h3.9c2.1,0,3.7-0.4,5-1.2c1.3-0.8,2-2.2,2.4-4.2C178.9,61.8,178.6,60.5,177.6,59.6
		z M173.6,65.5c-0.6,0.4-1.3,0.6-2.2,0.6h-3.6l0.9-4.9h3.6c0.9,0,1.6,0.2,2,0.6c0.4,0.4,0.6,1,0.4,1.8
		C174.6,64.5,174.2,65.1,173.6,65.5z M306,70.1c0,2.4,1.6,3.1,3.6,3.1c1.4,0,3.1-0.7,3-2.4c-0.1-1.7-2.2-2-4.2-2.6
		c-2.1-0.7-4.1-1.6-4.2-4.6c-0.1-3.8,3.1-5.3,6.3-5.3c3.3,0,6.1,1.5,6.3,5.5h-3.4c0-1.9-1.3-2.6-3-2.6c-1.4,0-2.8,0.5-2.8,2.1
		c0.1,1.7,2.8,2.1,3.9,2.4c2.6,0.7,4.4,1.7,4.5,4.8c0.1,4.1-3.3,5.6-6.4,5.6c-4.5,0-6.8-2-7-6H306z M276.5,58.3l-0.5,3h-8.8
		l-0.6,3.5h8.1l-0.5,2.9H266l-0.8,4.3h9.2l-0.5,3h-12.6l2.9-16.7H276.5z"/>
</g>
</svg>
